2014001_C3_01_grf
version=1
nRows=24
nColumns=19
inDegrees=no
endheader
time	ground_force_1_vx	ground_force_1_vy	ground_force_1_vz	ground_force_1_px	ground_force_1_py	ground_force_1_pz	ground_force_1_mx	ground_force_1_my	ground_force_1_mz	ground_force_2_vx	ground_force_2_vy	ground_force_2_vz	ground_force_2_px	ground_force_2_py	ground_force_2_pz	ground_force_2_mx	ground_force_2_my	ground_force_2_mz
      0.48000000	    -29.94222790	    580.56139946	     -9.24411602	      0.33831057	     -0.00200000	      0.32635952	      0.00000000	      0.57692862	      0.00000000	      0.00000000	      0.00000000	      0.00000000	      0.00000000	      0.00000000	      0.00000000	      0.00000000	      0.00000000	      0.00000000
      0.48100000	    -29.92536239	    580.63879609	     -8.83300602	      0.33831866	     -0.00200000	      0.32638588	      0.00000000	      0.56790360	     -0.00000000	      0.00000000	      0.00000000	      0.00000000	      0.00000000	      0.00000000	      0.00000000	      0.00000000	      0.00000000	      0.00000000
      0.48200000	    -29.90929708	    580.71607351	     -8.41911230	      0.33832717	     -0.00200000	      0.32641177	      0.00000000	      0.55895335	      0.00000000	      0.00000000	      0.00000000	      0.00000000	      0.00000000	      0.00000000	      0.00000000	      0.00000000	      0.00000000	      0.00000000
      0.48300000	    -29.89435606	    580.79349995	     -8.00171355	      0.33833623	     -0.00200000	      0.32643707	      0.00000000	      0.55010366	      0.00000000	      0.00000000	      0.00000000	      0.00000000	      0.00000000	      0.00000000	      0.00000000	      0.00000000	      0.00000000	      0.00000000
      0.48400000	    -29.88041192	    580.87134361	     -7.58149242	      0.33834574	     -0.00200000	      0.32646189	      0.00000000	      0.54133984	      0.00000000	      0.00000000	      0.00000000	      0.00000000	      0.00000000	      0.00000000	      0.00000000	      0.00000000	      0.00000000	      0.00000000
      0.48500000	    -29.86784577	    580.95005155	     -7.15772365	      0.33835586	     -0.00200000	      0.32648611	      0.00000000	      0.53269198	      0.00000000	      0.00000000	      0.00000000	      0.00000000	      0.00000000	      0.00000000	      0.00000000	      0.00000000	      0.00000000	      0.00000000
      0.48600000	    -29.85648438	    581.02971315	     -6.73110457	      0.33836647	     -0.00200000	      0.32650984	      0.00000000	      0.52414328	      0.00000000	      0.00000000	      0.00000000	      0.00000000	      0.00000000	      0.00000000	      0.00000000	      0.00000000	      0.00000000	      0.00000000
      0.48700000	    -29.84676138	    581.11098409	     -6.30091084	      0.33837772	     -0.00200000	      0.32653293	      0.00000000	      0.51572580	      0.00000000	      0.00000000	      0.00000000	      0.00000000	      0.00000000	      0.00000000	      0.00000000	      0.00000000	      0.00000000	      0.00000000
      0.48800000	    -29.83845770	    581.19392395	     -5.86784957	      0.33838948	     -0.00200000	      0.32655544	      0.00000000	      0.50741760	      0.00000000	      0.00000000	      0.00000000	      0.00000000	      0.00000000	      0.00000000	      0.00000000	      0.00000000	      0.00000000	      0.00000000
      0.48900000	    -29.83207069	    581.27933741	     -5.43119223	      0.33840187	     -0.00200000	      0.32657722	      0.00000000	      0.49924815	      0.00000000	      0.00000000	      0.00000000	      0.00000000	      0.00000000	      0.00000000	      0.00000000	      0.00000000	      0.00000000	      0.00000000
      0.49000000	    -29.82733324	    581.36719465	     -4.99164732	      0.33841477	     -0.00200000	      0.32659835	     -0.00000000	      0.49118765	      0.00000000	      0.00000000	      0.00000000	      0.00000000	      0.00000000	      0.00000000	      0.00000000	      0.00000000	      0.00000000	      0.00000000
      0.49100000	    -29.82481308	    581.45841956	     -4.54847934	      0.33842834	     -0.00200000	      0.32661865	      0.00000000	      0.48326104	      0.00000000	      0.00000000	      0.00000000	      0.00000000	      0.00000000	      0.00000000	      0.00000000	      0.00000000	      0.00000000	      0.00000000
      0.49200000	    -29.82419059	    581.55280352	     -4.10240609	      0.33844243	     -0.00200000	      0.32663823	      0.00000000	      0.47543823	     -0.00000000	      0.00000000	      0.00000000	      0.00000000	      0.00000000	      0.00000000	      0.00000000	      0.00000000	      0.00000000	      0.00000000
      0.49300000	    -29.82609384	    581.65147901	     -3.65269266	      0.33845719	     -0.00200000	      0.32665691	      0.00000000	      0.46773930	      0.00000000	      0.00000000	      0.00000000	      0.00000000	      0.00000000	      0.00000000	      0.00000000	      0.00000000	      0.00000000	      0.00000000
      0.49400000	    -29.83015403	    581.75396919	     -3.20006022	      0.33847249	     -0.00200000	      0.32667483	      0.00000000	      0.46013405	      0.00000000	      0.00000000	      0.00000000	      0.00000000	      0.00000000	      0.00000000	      0.00000000	      0.00000000	      0.00000000	      0.00000000
      0.49500000	    -29.83707972	    581.86167479	     -2.74377060	      0.33848849	     -0.00200000	      0.32669175	      0.00000000	      0.45263968	      0.00000000	      0.00000000	      0.00000000	      0.00000000	      0.00000000	      0.00000000	      0.00000000	      0.00000000	      0.00000000	      0.00000000
      0.49600000	    -29.84643728	    581.97396994	     -2.28455081	      0.33850503	     -0.00200000	      0.32670784	     -0.00000000	      0.44523070	      0.00000000	      0.00000000	      0.00000000	      0.00000000	      0.00000000	      0.00000000	      0.00000000	      0.00000000	      0.00000000	      0.00000000
      0.49700000	    -29.85901348	    582.09237456	     -1.82166457	      0.33852230	     -0.00200000	      0.32672286	      0.00000000	      0.43792419	     -0.00000000	      0.00000000	      0.00000000	      0.00000000	      0.00000000	      0.00000000	      0.00000000	      0.00000000	      0.00000000	      0.00000000
      0.49800000	    -29.87431437	    582.21602440	     -1.35584571	      0.33854013	     -0.00200000	      0.32673699	      0.00000000	      0.43069705	      0.00000000	      0.00000000	      0.00000000	      0.00000000	      0.00000000	      0.00000000	      0.00000000	      0.00000000	      0.00000000	      0.00000000
      0.49900000	    -29.89320047	    582.34661818	     -0.88636467	      0.33855871	     -0.00200000	      0.32674998	     -0.00000000	      0.42356596	      0.00000000	      0.00000000	      0.00000000	      0.00000000	      0.00000000	      0.00000000	      0.00000000	      0.00000000	      0.00000000	      0.00000000
      0.50000000	    -29.91509512	    582.48299360	     -0.41395641	      0.33857793	     -0.00200000	      0.32676205	      0.00000000	      0.41651133	      0.00000000	      0.00000000	      0.00000000	      0.00000000	      0.00000000	      0.00000000	      0.00000000	      0.00000000	      0.00000000	      0.00000000
      0.50100000	    -29.94091809	    582.62705803	      0.06211515	      0.33859794	     -0.00200000	      0.32677292	      0.00000000	      0.40955398	      0.00000000	      0.00000000	      0.00000000	      0.00000000	      0.00000000	      0.00000000	      0.00000000	      0.00000000	      0.00000000	      0.00000000
      0.50200000	    -29.97001335	    582.77744055	      0.54112839	      0.33861864	     -0.00200000	      0.32678285	      0.00000000	      0.40267844	      0.00000000	      0.00000000	      0.00000000	      0.00000000	      0.00000000	      0.00000000	      0.00000000	      0.00000000	      0.00000000	      0.00000000
      0.50300000	    -30.00336885	    582.93619752	      1.02384444	      0.33864022	     -0.00200000	      0.32679156	     -0.00000000	      0.39591469	      0.00000000	      0.00000000	      0.00000000	      0.00000000	      0.00000000	      0.00000000	      0.00000000	      0.00000000	      0.00000000	      0.00000000
